inDegrees=yes
name=ik_S56_A12_T02
DataType=double
version=3
OpenSimVersion=4.3-2021-08-27-4bc7ad9
endheader
time	pelvis_tilt	pelvis_list	pelvis_rotation	pelvis_tx	pelvis_ty	pelvis_tz	hip_flexion_r	hip_adduction_r	hip_rotation_r	knee_angle_r	knee_angle_r_beta	ankle_angle_r	subtalar_angle_r	mtp_angle_r	hip_flexion_l	hip_adduction_l	hip_rotation_l	knee_angle_l	knee_angle_l_beta	ankle_angle_l	subtalar_angle_l	mtp_angle_l	lumbar_extension	lumbar_bending	lumbar_rotation	arm_flex_r	arm_add_r	arm_rot_r	elbow_flex_r	pro_sup_r	wrist_flex_r	wrist_dev_r	arm_flex_l	arm_add_l	arm_rot_l	elbow_flex_l	pro_sup_l	wrist_flex_l	wrist_dev_l
4.219999999999998	-1.281773465076549	-1.06516320025527	36.615958906875	0	0.9399999999999999	0	19.40902572964017	-7.298531816730049	-6.164548243822416	21.71938897730453	0.3790748491753279	0	0	0	19.40902572964017	-7.298531816730049	-6.164548243822416	21.71938897730453	0.3790748491753279	0	0	0	-1.594828137667314	0.06667565666063065	9.914442234442618	6.227218124496573	-5.412137294858153	-0.7598851982681183	6.298052268701742	120.2848950570986	0	0	-1.422270576592746	-6.282642458670638	3.114898998428731	4.784485039643594	106.4118575394607	0	0
4.239999999999998	-1.295406354380398	-1.065130955546488	36.34031825286732	0	0.9399999999999999	0	19.42029572286033	-7.30222792959584	-6.167917695815104	21.73110899169913	0.3792794020148949	0	0	0	19.42029572286033	-7.30222792959584	-6.167917695815104	21.73110899169913	0.3792794020148949	0	0	0	-1.606357906238201	0.07575257464856819	9.884132162488717	6.282539207179492	-5.404313419265316	-0.5456779311462765	6.312382108361952	120.2121741179268	0	0	-0.643027659467256	-6.153516458657311	3.446878211068865	5.902603155524129	106.4862167097015	0	0
4.259999999999997	-1.298711669683923	-1.068156230733564	36.22871010199644	0	0.9399999999999999	0	19.43037726027557	-7.305525533899436	-6.170927652167348	21.74160751552929	0.3794626358223303	0	0	0	19.43037726027557	-7.305525533899436	-6.170927652167348	21.74160751552929	0.3794626358223303	0	0	0	-1.609106565578485	0.07113259856205274	10.00675754933143	6.293623032550951	-5.402373091200479	-0.5572602672304974	6.382566428289265	120.0530033758669	0	0	0.2469523073972915	-6.113765829256918	4.09396850080274	7.166035202720527	106.8697116960333	0	0
4.279999999999997	-1.314471623328407	-1.055643763862002	35.96788971547155	0	0.9399999999999999	0	19.44327917486495	-7.309752042473322	-6.174783577388451	21.75501815038198	0.3796966955552923	0	0	0	19.44327917486495	-7.309752042473322	-6.174783577388451	21.75501815038198	0.3796966955552923	0	0	0	-1.614296711108807	0.08957890194005182	10.03172552855797	6.331731005253313	-5.404678629643558	-0.4354384264539085	6.438369405626538	120.0106152418123	0	0	1.065321557872876	-6.039463539677718	4.644978589944805	8.737344858313971	107.2085828276104	0	0
4.299999999999996	-1.338184797326353	-1.037143757856081	35.659697990799	0	0.9399999999999999	0	19.45932583394475	-7.315009034844254	-6.17958042663642	21.77168168417278	0.3799875290849591	0	0	0	19.45932583394475	-7.315009034844254	-6.17958042663642	21.77168168417278	0.3799875290849591	0	0	0	-1.62345308724774	0.1190355598533774	10.02885105004462	6.41332820897822	-5.438398792774963	-0.4770471396552099	6.467690159988555	120.1906958427455	0	0	1.966978134147299	-6.009485378132558	5.205667275220148	10.32532404607873	107.3412796486439	0	0
4.319999999999996	-1.374053342111264	-1.010381812342256	35.33984127767553	0	0.9399999999999999	0	19.46953103484879	-7.318340297988675	-6.182625232688686	21.78230053897165	0.3801728630639908	0	0	0	19.46953103484879	-7.318340297988675	-6.182625232688686	21.78230053897165	0.3801728630639908	0	0	0	-1.637199969661721	0.1608807018332311	10.04422571228299	6.457777493526856	-5.489305125342326	-0.1670864494651958	6.565024917375099	119.9893731862867	0	0	3.03814823963936	-6.027975459443267	5.789549342526325	11.87190836677633	107.4764647957378	0	0
4.339999999999995	-1.399510296537232	-0.990694689197241	35.05942297650223	0	0.9399999999999999	0	19.48050376548041	-7.32191954374505	-6.185898131741899	21.7937169228761	0.380372116551795	0	0	0	19.48050376548041	-7.32191954374505	-6.185898131741899	21.7937169228761	0.380372116551795	0	0	0	-1.645927049351414	0.1895004425647748	10.11003844854195	6.479191059027518	-5.526516184308737	0.04856975262234036	6.630023740078676	119.7346766013585	0	0	4.218179464300426	-6.132071744017405	6.554344926068022	13.50493929107105	107.3366352046098	0	0
4.359999999999995	-1.421923560831547	-0.9655485173602928	34.76080174113821	0	0.9399999999999999	0	19.49769164208296	-7.327531128590027	-6.191028439305597	21.8115717284035	0.3806837416955515	0	0	0	19.49769164208296	-7.327531128590027	-6.191028439305597	21.8115717284035	0.3806837416955515	0	0	0	-1.649040879825308	0.2192719838781609	10.20260497609097	6.486178143524113	-5.560378735519533	0.2693405059530229	6.703135254109333	119.4579585086728	0	0	5.390035148633695	-6.193003249346882	7.636387153942102	15.40215915649679	106.7938903608611	0	0
4.379999999999995	-1.466019141929193	-0.9569325954106853	34.46695120321437	0	0.9399999999999999	0	19.50880347988486	-7.331149753036687	-6.194340833638945	21.82312806690181	0.380885437851822	0	0	0	19.50880347988486	-7.331149753036687	-6.194340833638945	21.82312806690181	0.380885437851822	0	0	0	-1.679407476172513	0.247232407285934	10.29226973146394	6.564431146794538	-5.61422603131453	0.4813255433092291	6.778731404519651	119.1801310477208	0	0	6.776364197422281	-6.215005493339048	8.796246052323967	15.82232154659763	105.8783291408564	0	0
4.399999999999994	-1.504989732777114	-0.9336478921048037	34.10155233745956	0	0.9399999999999999	0	19.54296507069156	-7.342237407502647	-6.204510841188967	21.85865133786246	0.3815054358911633	0	0	0	19.54296507069156	-7.342237407502647	-6.204510841188967	21.85865133786246	0.3815054358911633	0	0	0	-1.697370647022331	0.2852183611454974	10.43890987440269	6.598135209771797	-5.674013557846078	0.7210996518869666	6.631044479043	118.9334536814058	0	0	8.237556440304378	-6.177325046005134	9.963218097173911	19.51041430374031	105.0852151823765	0	0
4.419999999999994	-1.556274709614755	-0.9172072139111348	33.79084687024025	0	0.9399999999999999	0	19.55506332780113	-7.346161598871505	-6.208111097614489	21.87123704252015	0.3817250978761237	0	0	0	19.55506332780113	-7.346161598871505	-6.208111097614489	21.87123704252015	0.3817250978761237	0	0	0	-1.730484882463173	0.3252983027625615	10.52423052740217	6.66962661162724	-5.748395756962148	0.9497352241324892	6.540863031489223	118.6680061953964	0	0	9.940704667587509	-6.234418178512905	10.91680633191948	19.83221296891234	103.8760883111607	0	0
4.439999999999993	-1.593546029159598	-0.895922325926466	33.45409285657105	0	0.9399999999999999	0	19.57354410162338	-7.352157872675161	-6.213612827719836	21.89043869383394	0.3820602299133691	0	0	0	19.57354410162338	-7.352157872675161	-6.213612827719836	21.89043869383394	0.3820602299133691	0	0	0	-1.748470360056039	0.3598865011347259	10.63593448446624	6.708167720491576	-5.807438461150133	1.185949829771768	6.414290801427435	118.4364568209804	0	0	11.68981895415014	-6.201467543845489	11.93496853129417	22.06042913207584	102.4464095428936	0	0
